<?xml version="1.0" encoding="utf-8"?>
<!-- Generator: Adobe Illustrator 22.0.1, SVG Export Plug-In . SVG Version: 6.00 Build 0)  -->
<svg version="1.1" id="_x31_19ba5e1-a42c-45e9-aad3-66da0c829769"
	 xmlns="http://www.w3.org/2000/svg" xmlns:xlink="http://www.w3.org/1999/xlink" x="0px" y="0px" viewBox="0 0 1101.2 790.5"
	 style="enable-background:new 0 0 1101.2 790.5;" xml:space="preserve">
<style type="text/css">
	.st0{opacity:0.1;fill:#6C63FF;enable-background:new    ;}
	.st1{fill:#6C63FF;}
	.st2{opacity:0.2;}
	.st3{opacity:0.2;fill:#FFFFFF;enable-background:new    ;}
	.st4{opacity:0.2;fill:#6C63FF;enable-background:new    ;}
	.st5{fill:#FFFFFF;}
	.st6{opacity:0.5;}
	.st7{fill:#F6F7F9;}
	.st8{fill:url(#SVGID_1_);}
	.st9{fill:#B07473;}
	.st10{fill:#EFB7B9;}
	.st11{opacity:0.1;enable-background:new    ;}
	.st12{fill:#444053;}
	.st13{fill:#E1E7EF;}
	.st14{fill:#67647E;}
	.st15{fill:#585268;}
	.st16{opacity:0.1;}
	.st17{fill:#FFD037;}
	.st18{fill:#65617D;}
	.st19{fill:#9D9CB5;}
</style>
<title>weather</title>
<path class="st0" d="M709.2,88.6c-43.8,30.9-100.6,28.9-150.3,12.8s-95.5-44.7-144-65c-40.4-17-83-28.2-126.5-33.2
	c-61.8-7.1-130.8,1.6-173.9,51.5c-47.9,55.6-44.3,155.9,7.6,206.9c26.4,26,60.9,38.7,91,59c30.1,20.3,58,53.9,55.5,93.1
	c-2.4,36.2-30,64-58.6,81.4c-22.1,13.5-49.3,28.2-52,56.1c-2.6,27,20.3,48.2,42.1,60.2c71.3,39.3,159,38.9,230-1
	c25.3-14.2,48.6-33.1,75.1-44.2C575,537,651.9,566.3,725.7,577c62.7,9.1,126.6,4.4,187.4-13.7c36.6-10.9,73.3-27.5,99-58.5
	c18.5-22.3,30.1-50.6,40.9-78.5c11.5-29.8,22.6-59.8,33.3-90c6.4-18.1,12.7-36.6,14.3-56c3-35.2-9.6-69.9-26.8-99.6
	c-40.8-70.4-109.4-119.9-183.8-132.5s-153.1,12-210.8,65.7"/>
<ellipse class="st0" cx="176" cy="697.4" rx="176" ry="30"/>
<path class="st1" d="M256.8,166h735.8c16.8,0,30.3,16.2,30.3,36.1v376.9c0,19.9-13.6,36.1-30.3,36.1H256.8
	c-16.8,0-30.3-16.2-30.3-36.1V202.1C226.4,182.1,240,166,256.8,166z"/>
<g class="st2">
	<path class="st3" d="M389.7,463.9H260.9c-15.4,0-27.9-12.5-27.9-27.9l0,0V251.6c0-15.4,12.5-27.9,27.9-27.9c0,0,0,0,0,0h128.8
		V463.9z"/>
</g>
<g class="st2">
	<path class="st3" d="M988.4,463.9H859.6V223.6h128.8c15.4,0,27.9,12.5,27.9,27.9c0,0,0,0,0,0V436
		C1016.4,451.4,1003.9,463.9,988.4,463.9z"/>
</g>
<g class="st2">
	<rect x="702.9" y="223.6" class="st3" width="156.7" height="240.3"/>
</g>
<g class="st2">
	<rect x="546.2" y="223.6" class="st3" width="156.7" height="240.3"/>
</g>
<g class="st2">
	<rect x="389.4" y="223.6" class="st4" width="156.7" height="240.3"/>
</g>
<g>
	<path class="st5" d="M479.5,332.1c-1.3,0-2.3-1-2.3-2.3l0,0v-6.6c0-1.3,1-2.3,2.3-2.3c1.3,0,2.3,1,2.3,2.3c0,0,0,0,0,0v6.6
		C481.8,331,480.8,332.1,479.5,332.1z"/>
	<path class="st5" d="M468,336.8c-0.6,0-1.2-0.2-1.6-0.7l-4.6-4.6c-0.9-0.8-1-2.3-0.2-3.2c0.8-0.9,2.3-1,3.2-0.2
		c0.1,0.1,0.1,0.1,0.2,0.2l4.7,4.6c0.9,0.9,0.9,2.3,0,3.2C469.2,336.6,468.6,336.8,468,336.8L468,336.8z"/>
	<path class="st5" d="M495.7,364.5c-0.6,0-1.2-0.2-1.6-0.7l-4.6-4.6c-0.9-0.8-1-2.3-0.2-3.2s2.3-1,3.2-0.2c0.1,0.1,0.1,0.1,0.2,0.2
		l4.6,4.6c0.9,0.9,0.9,2.3,0,3.2C496.8,364.2,496.3,364.4,495.7,364.5L495.7,364.5z"/>
	<path class="st5" d="M502.3,348.3h-6.6c-1.3,0-2.3-1-2.3-2.3c0-1.3,1-2.3,2.3-2.3h6.6c1.3,0,2.3,1,2.3,2.3
		C504.6,347.3,503.6,348.3,502.3,348.3L502.3,348.3z"/>
	<path class="st5" d="M491,336.8c-1.3,0-2.3-1-2.3-2.3c0-0.6,0.2-1.2,0.7-1.6l4.6-4.6c0.9-0.9,2.3-0.9,3.2,0c0.9,0.9,0.9,2.3,0,3.2
		c0,0,0,0,0,0l-4.6,4.6C492.2,336.6,491.6,336.8,491,336.8z"/>
	<path class="st5" d="M491.6,346c0-6.6-5.3-12-12-12c-3.9,0-7.5,1.9-9.8,5c-8.1-4.6-18.4-1.7-23,6.4c-0.5,0.9-0.9,1.8-1.2,2.7
		c-1.3-0.1-2.6-0.1-3.9,0.2c-6.1,1.4-9.8,7.5-8.4,13.6c1.2,5.1,5.8,8.7,11,8.7h30.3c1,0,2-0.1,3-0.4c6.8-1.6,11.1-8.3,9.8-15.2
		C490,352.8,491.5,349.5,491.6,346z M476.6,365.9c-0.7,0.2-1.3,0.2-2,0.2h-30.3c-3.7,0-6.7-3.1-6.7-6.8c0-3.1,2.1-5.8,5.2-6.5
		c0.5-0.1,1-0.2,1.6-0.2c0.7,0,1.5,0.1,2.1,0.4c0.6,0.2,1.3,0.1,1.9-0.2c0.6-0.3,1-0.9,1.1-1.5c1.4-6.7,7.9-11,14.6-9.6
		c3.5,0.7,6.6,3,8.3,6.1c0,0,0,0.1,0,0.1c0.4,0.8,1.2,1.2,2.1,1.2h0.3c2.9,0,5.7,1.5,7.2,4c0.5,0.8,0.8,1.6,1,2.5
		c0.1,0.6,0.2,1.2,0.2,1.9C483.1,361.4,480.4,364.9,476.6,365.9z M482.7,347.3c-2-1.6-4.5-2.5-7-2.7c-0.6-1-1.4-1.9-2.3-2.8
		c2.3-3.4,7-4.3,10.4-2s4.3,7,2,10.4c-0.1,0.1-0.1,0.2-0.2,0.3C484.8,349.3,483.8,348.2,482.7,347.3z"/>
</g>
<g class="st6">
	<path class="st5" d="M658,341.2c-1.3-5.5-6-9.6-11.7-10c-5.1-7.8-15.5-10.1-23.3-5c-1.7,1.1-3.1,2.4-4.3,4
		c-6.9,0.3-12.8,4.8-15.1,11.3c-6.2-0.7-11.8,3.8-12.5,10c-0.7,6.2,3.8,11.8,10,12.5c0.4,0,0.8,0.1,1.2,0.1h30.3c1,0,2-0.1,3-0.4
		c3.6-0.8,6.6-3.1,8.4-6.3h1.3c1,0,2-0.1,3-0.4C655.3,355.3,659.7,348.3,658,341.2C658,341.2,658,341.2,658,341.2z M638.2,357.2
		c-1,1-2.3,1.6-3.7,2c-0.7,0.2-1.3,0.2-2,0.2h-30.3c-3.7,0-6.8-3-6.8-6.7c0-3.1,2.2-5.9,5.2-6.6c1-0.2,2-0.2,3,0
		c0.2,0.1,0.5,0.1,0.7,0.2c1.2,0.4,2.5-0.2,2.9-1.4c0-0.1,0.1-0.2,0.1-0.3c1.2-5.7,6.2-9.8,12.1-9.8c0.6,0,1.1,0,1.7,0.1
		c3.9,0.5,7.3,2.9,9.2,6.4c0.4,0.8,1.2,1.2,2.1,1.2h0.2c4.7,0,8.5,3.8,8.5,8.5c0,2.4-1,4.7-2.8,6.3L638.2,357.2z M647.2,352.5
		c-0.6,0.1-1.2,0.2-1.8,0.2c0.2-1.6,0.1-3.2-0.2-4.8c-1.3-5.5-6-9.6-11.7-10c-2.2-3.4-5.5-5.8-9.3-7c5.2-4.4,13-3.7,17.4,1.6
		c0.5,0.6,1,1.3,1.4,2.1c0.4,0.8,1.2,1.2,2.1,1.2h0.3c4.7,0,8.5,3.8,8.5,8.5C653.8,348.1,651.1,351.5,647.2,352.5L647.2,352.5z"/>
</g>
<g class="st6">
	<path class="st5" d="M948.6,362.7l-1.5-0.9l1.5-0.8c0.6-0.3,0.7-1,0.4-1.6c-0.3-0.6-1-0.7-1.6-0.4l0,0l-1.5,0.9v-1.6
		c0.1-0.6-0.4-1.2-1-1.2c-0.6-0.1-1.2,0.4-1.2,1c0,0.1,0,0.1,0,0.2v1.7l-1.5-0.8c-0.6-0.3-1.3-0.1-1.6,0.4c-0.3,0.6-0.1,1.3,0.4,1.6
		l1.5,0.8l-1.5,0.8c-0.5,0.3-0.7,1-0.4,1.5c0,0,0,0,0,0c0.2,0.4,0.6,0.6,1,0.6c0.2,0,0.4-0.1,0.6-0.2l1.5-0.8v1.7
		c0.1,0.6,0.6,1.1,1.2,1c0.5-0.1,1-0.5,1-1v-1.7l1.5,0.8c0.2,0.1,0.4,0.2,0.6,0.2c0.4,0,0.8-0.2,1-0.6
		C949.3,363.8,949.2,363.1,948.6,362.7C948.6,362.7,948.6,362.7,948.6,362.7z"/>
	<path class="st5" d="M941.7,353.2l-1.5-0.8l1.5-0.9c0.5-0.3,0.7-1,0.4-1.5c0,0,0,0,0,0c-0.3-0.5-1-0.7-1.5-0.4c0,0,0,0,0,0
		l-1.5,0.9v-1.7c-0.1-0.6-0.6-1.1-1.2-1c-0.5,0.1-1,0.5-1,1v1.7l-1.5-0.8c-0.6-0.3-1.3-0.1-1.6,0.4c-0.3,0.6-0.1,1.3,0.4,1.6
		l1.5,0.8l-1.5,0.8c-0.5,0.3-0.7,1-0.4,1.5c0.2,0.4,0.6,0.6,1,0.6c0.2,0,0.4-0.1,0.6-0.1l1.5-0.8v1.7c0.1,0.6,0.6,1.1,1.2,1
		c0.5-0.1,1-0.5,1-1v-1.7l1.4,0.8c0.2,0.1,0.4,0.1,0.6,0.1c0.6,0,1.1-0.5,1.1-1.2C942.3,353.8,942.1,353.5,941.7,353.2L941.7,353.2z
		"/>
	<path class="st5" d="M934.9,362.7l-1.5-0.9l1.5-0.8c0.6-0.3,0.7-1,0.4-1.6c-0.3-0.6-1-0.7-1.6-0.4l-1.5,0.9v-1.6
		c0.1-0.6-0.4-1.2-1-1.2c-0.6-0.1-1.2,0.4-1.2,1c0,0.1,0,0.1,0,0.2v1.7l-1.4-0.8c-0.6-0.3-1.3-0.1-1.6,0.4s-0.1,1.3,0.4,1.6l0,0
		l1.5,0.8l-1.5,0.8c-0.5,0.3-0.7,1-0.4,1.5c0,0,0,0,0,0c0.2,0.4,0.6,0.6,1,0.6c0.2,0,0.4-0.1,0.6-0.2l1.4-0.8v1.7
		c0.1,0.6,0.6,1.1,1.2,1c0.5-0.1,1-0.5,1-1v-1.7l1.5,0.8c0.2,0.1,0.4,0.2,0.6,0.2c0.6,0,1.1-0.5,1.1-1.2
		C935.5,363.3,935.3,362.9,934.9,362.7L934.9,362.7z"/>
	<path class="st5" d="M965,338.6c-1.3-5.5-6-9.6-11.7-10c-5.1-7.8-15.5-10.1-23.3-5c-3.1,2-5.5,5-6.7,8.5c-6.2-0.7-11.8,3.8-12.5,10
		c-0.7,6.2,3.8,11.8,10,12.5c0.4,0,0.8,0.1,1.2,0.1h3.6c1.3,0,2.3-1,2.3-2.3c0-1.3-1-2.3-2.3-2.3l0,0h-3.7c-3.1,0-5.9-2.2-6.6-5.2
		c-0.8-3.6,1.4-7.2,5-8.1c1.2-0.3,2.5-0.2,3.7,0.2c1.2,0.4,2.5-0.2,2.9-1.4c0-0.1,0.1-0.2,0.1-0.3c1.4-6.7,7.9-11,14.6-9.6
		c3.6,0.7,6.6,3,8.3,6.2c0.4,0.8,1.2,1.2,2.1,1.2h0.3c4.7,0,8.5,3.8,8.5,8.5c0,4-2.7,7.4-6.5,8.3c-0.7,0.2-1.3,0.2-2,0.2h-1.9
		c-1.3,0-2.3,1-2.3,2.3c0,1.3,1,2.3,2.3,2.3h1.9c7.2,0,13-5.8,13.1-12.9C965.4,340.7,965.3,339.6,965,338.6L965,338.6z"/>
</g>
<g class="st6">
	<path class="st5" d="M798.6,352.3c-1,0.2-2,0.3-3,0.4h-5.2c-1.3,0-2.3-1-2.3-2.3c0-1.3,1-2.3,2.3-2.3h5.2c0.7,0,1.3-0.1,2-0.2
		c4.6-1.1,7.4-5.7,6.3-10.2c-0.9-3.8-4.4-6.6-8.3-6.5h-0.3c-0.9,0-1.7-0.4-2.1-1.2c-3.2-6-10.7-8.3-16.7-5.1
		c-3.3,1.7-5.6,4.8-6.3,8.4c-0.2,1.2-1.4,2-2.6,1.8c-0.1,0-0.2-0.1-0.4-0.1c-3-1-6.2,0.2-7.9,2.9c-2,3.2-1,7.3,2.2,9.3
		c1.1,0.7,2.3,1,3.5,1h7.6c1.3,0,2.3,1,2.3,2.3c0,1.3-1,2.3-2.3,2.3l0,0h-7.6c-6.2,0-11.3-5.1-11.3-11.3c0-2.1,0.6-4.1,1.7-5.9
		c2.3-3.7,6.5-5.8,10.9-5.3c3-8.8,12.6-13.5,21.5-10.4c3.6,1.2,6.7,3.7,8.7,6.9c7.2,0.4,12.7,6.5,12.3,13.7
		C808.5,346.2,804.3,351.1,798.6,352.3z"/>
	<polygon class="st5" points="782.2,352.1 785.4,352.1 778.6,368.6 780.2,356.7 777.2,356.7 779.6,343.5 785.8,343.5 	"/>
</g>
<g class="st6">
	<path class="st5" d="M306.3,332c-1.5,0-2.7-1.2-2.7-2.7v-7.9c-0.1-1.5,1-2.8,2.5-2.9c1.5-0.1,2.8,1,2.9,2.5c0,0.1,0,0.2,0,0.4v7.9
		C309,330.8,307.8,332,306.3,332z"/>
	<path class="st5" d="M286.8,351.5h-7.9c-1.5,0-2.7-1.2-2.7-2.7c0-1.5,1.2-2.7,2.7-2.7h7.9c1.5,0,2.7,1.2,2.7,2.7
		C289.5,350.3,288.3,351.5,286.8,351.5z"/>
	<path class="st5" d="M306.3,378.9c-1.5,0-2.7-1.2-2.7-2.7v-7.9c0.1-1.5,1.4-2.6,2.9-2.5c1.4,0.1,2.4,1.2,2.5,2.5v7.9
		C309,377.7,307.8,378.9,306.3,378.9z"/>
	<path class="st5" d="M333.7,351.5h-7.9c-1.5,0-2.7-1.2-2.7-2.7c0-1.5,1.2-2.7,2.7-2.7h7.9c1.5,0,2.7,1.2,2.7,2.7
		C336.4,350.3,335.2,351.5,333.7,351.5L333.7,351.5z"/>
	<path class="st5" d="M306.3,363.2c-7.9,0-14.4-6.4-14.4-14.4c0-7.9,6.4-14.4,14.4-14.4s14.4,6.4,14.4,14.4
		C320.7,356.8,314.2,363.2,306.3,363.2z M306.3,339.9c-4.9,0-9,4-8.9,9c0,4.9,4,9,9,8.9c4.9,0,8.9-4,8.9-9
		C315.2,343.9,311.2,339.9,306.3,339.9z"/>
	<path class="st5" d="M292.5,337.7c-0.7,0-1.4-0.3-1.9-0.8l-2.8-2.8c-1-1.1-1-2.8,0.1-3.9c1.1-1,2.7-1,3.8,0l2.8,2.8
		c1.1,1.1,1.1,2.8,0,3.9C293.9,337.5,293.2,337.7,292.5,337.7z"/>
	<path class="st5" d="M289.7,368.1c-1.5,0-2.7-1.2-2.7-2.7c0-0.7,0.3-1.4,0.8-1.9l2.8-2.8c1-1.1,2.8-1.1,3.9-0.1
		c1.1,1,1.1,2.8,0.1,3.9c0,0,0,0-0.1,0.1l-2.8,2.8C291.1,367.8,290.4,368.1,289.7,368.1z"/>
	<path class="st5" d="M322.9,368.1c-0.7,0-1.4-0.3-1.9-0.8l-2.8-2.8c-1-1.1-1-2.8,0.1-3.9c1.1-1,2.7-1,3.8,0l2.8,2.8
		c1.1,1.1,1.1,2.8,0,3.9C324.3,367.8,323.6,368.1,322.9,368.1z"/>
	<path class="st5" d="M320.1,337.7c-1.5,0-2.7-1.2-2.7-2.7c0-0.7,0.3-1.4,0.8-1.9l2.8-2.8c1.1-1,2.8-1,3.9,0.1c1,1.1,1,2.7,0,3.8
		L322,337C321.5,337.5,320.8,337.7,320.1,337.7z"/>
</g>
<path class="st7" d="M279.5,234.1h63.5c7.7,0,14,6.3,14,14l0,0c0,7.7-6.3,14-14,14h-63.5c-7.7,0-14-6.3-14-14l0,0
	C265.5,240.4,271.8,234.1,279.5,234.1z"/>
<path class="st7" d="M436.1,234.1h63.5c7.7,0,14,6.3,14,14l0,0c0,7.7-6.3,14-14,14h-63.5c-7.7,0-14-6.3-14-14l0,0
	C422.1,240.4,428.4,234.1,436.1,234.1z"/>
<path class="st7" d="M592.8,234.1h63.5c7.7,0,14,6.3,14,14l0,0c0,7.7-6.3,14-14,14h-63.5c-7.7,0-14-6.3-14-14l0,0
	C578.8,240.4,585,234.1,592.8,234.1z"/>
<path class="st7" d="M749.4,234.1h63.5c7.7,0,14,6.3,14,14l0,0c0,7.7-6.3,14-14,14h-63.5c-7.7,0-14-6.3-14-14l0,0
	C735.4,240.4,741.6,234.1,749.4,234.1z"/>
<path class="st7" d="M906,234.1h63.5c7.7,0,14,6.3,14,14l0,0c0,7.7-6.3,14-14,14H906c-7.7,0-14-6.3-14-14l0,0
	C892,240.4,898.3,234.1,906,234.1z"/>
<linearGradient id="SVGID_1_" gradientUnits="userSpaceOnUse" x1="286.4764" y1="23.7587" x2="286.4764" y2="696.2432" gradientTransform="matrix(1 0 0 -1 -49.43 735.23)">
	<stop  offset="0" style="stop-color:#808080;stop-opacity:0.25"/>
	<stop  offset="0.54" style="stop-color:#808080;stop-opacity:0.12"/>
	<stop  offset="1" style="stop-color:#808080;stop-opacity:0.1"/>
</linearGradient>
<path class="st8" d="M422.1,368.8c0,0-29.8-30-39.2-30.4c-5.4-0.2-11.6-2.9-15.9-5.2l-1.1-0.6c1-1.3,0.5-2,0-2.4
	c-0.2-0.1-0.4-0.2-0.5-0.3l-71.1-56.2c0.7-1.1-3.1-13-3.1-13l-3.8-12.4l-8-10.4c0,0,2.2-7.2,0-10.9s-1.8-12.1-3.3-32.8
	s-10-21.9-10-21.9s-32.7-21.7-36.5-21.1c-3.5,0.6-8.2-6.2-8.8-7.1l-0.1-0.1c0,0,0,0.1-0.1,0.2c0.1-0.8,0.1-1.6,0.1-2.4l0,0
	c0-0.3,0-0.6,0-0.9l0,0c0.6-3.4,1.6-6.8,2.9-10c0.3-0.7,0.6-1.3,0.8-1.9c13.2-3.7,23.5-13.9,27.3-27.1c0.1-0.2,0.1-0.5,0.2-0.7
	c1.6,0.2,3.2,0.3,4.8,0.4h0.3c-0.5-1.1-0.9-2.2-1.1-3.4h-0.3c-0.1-0.6-0.2-1.2-0.2-1.8c0.1,0.4,0.3,0.8,0.4,1.2
	c-0.3-3.6,0.2-7.2,1.6-10.5c1.8-4.6,4.6-8.9,6.6-13.5c1.5-3.1,2.2-6.5,2.1-9.9c-0.1-1.2-0.4-2.4-0.9-3.6c0,0.1,0,0.1,0,0.2
	c0,0.3,0,0.5,0,0.8c-0.7-2.4-2.4-4.5-4.6-5.7c-1.8-0.9-3.9-1.1-5.6-2.2c-4.9-3.3-4.6-8.5-11.2-10.2c-5.3-1.4-10.9-1.3-16.2-2.8
	c-11.5-3.1-21.2-1.2-32.3,2.8c-8.3,3.3-16.4,7.6-22.7,13.9s-10.6,15-10,23.8c0.1,2.8,0.9,5.5,2.3,7.9c1.3,2.1,3.3,3.8,4,6.2
	c0.8,2.7-0.3,5.6-0.3,8.4c0,2.6,1.8,5.6,4.2,5.6c0.3,0,0.7,0,1-0.1c0.9-0.3,1.6-0.8,2.2-1.5c0.1,0.3,0.3,0.7,0.5,1
	c0.4,0.8,0.8,1.6,1.3,2.4c-0.1,0.4-0.1,0.9-0.3,1.3c-0.9,3.2-2.7,6.1-5.1,8.4c-0.6,0-1.2,0.2-1.7,0.5l0,0l-0.5,0.2l-16.2,8.2h-1.8
	c-5.2-0.1-20.4-0.2-22.7,0.7c-2.8,1.1-30.1,3.3-30.1,3.3s-14.5,0.9-13.8,22c0,0-5.5,17.9-7.1,20.9s-11.3,32.1-11.3,32.1L56,264.2
	l-1.3,61.6c0,0,0,7-0.2,15.3c-0.5,13.8-1.2,25.3-2.1,27.3l0,0l1,0.4c0,0.2-0.1,0.3-0.2,0.5l0.9-0.2l6.2,2.3c0,0-15.4,17.5-4.3,21.9
	c5.5,2.2,18.5,8.5,30.3,14.3c-2.3,12.9-1.3,26.2,3.1,38.5c1.5,7.2,1.8,14.6,0.8,21.9c-1.8,11.1,0.1,47.7,0.1,47.7l-0.1,64.2
	c0,0,2.4,41.2,4.4,50s-4.4,12.5-4.4,12.5s4.3,24.2,9.4,27.4c-0.1,0.5-0.2,1-0.4,1.5c-1,4-2.3,7.8-3.9,11.6
	c-3.6,8.4-1.3,14.3-1.3,14.3s0.3,11.8,21.6,14.2s20.5-12.5,18.7-18.2c-1.1-3.5-0.3-14.3,0.5-22.1c0.1-0.6,0.1-1.2,0.2-1.8
	c1.3-0.8,3-2.6,5-6.5c4.1-8.2,0-28.1-3-34.6s-0.3-13.6-0.3-13.6s-3.3-36.6,0-39.7c3.3-3.1,2.7-17,2.7-17l5.3-28.7l6.2-12.2l1.8-26.7
	l5-23.6c0,0,2.1-2,3.9-20.7s4.1-12.8,4.1-12.8c-0.9,12.5,5.9,18.7,5.9,18.7l1.9,32.7c0,0,2.3,24.4,6.1,30.4c3.8,6,0,13.3,0,13.3
	s1.3,23.3,0.1,30.1s4.4,22.4,4.4,22.4l1.5,28.1c0,0-8.9,25.3-4.7,33.5s2.1,17.9,2.1,17.9c0.2,0.6,0.5,1.1,0.9,1.5
	c-0.1,0.4-0.2,0.9-0.3,1.3c-0.6,3-1,6-1.3,9.1c0,0,2.2,3,12.1,6.7s7.7,9.9,9.2,13.9c1.5,4,11.6,7.5,31.4,6.7s7.3-15.2,7.3-15.2
	s-10.4-14.6-13.9-16.6c-1.2-0.7-2.5-2.9-3.7-5.6c-0.2-0.5-0.4-1-0.6-1.5l0.8-0.2c0,0,5.3-42,1.4-46s1.3-31.2,1.3-31.2
	s2.6-9.1,1.4-11.6s1.2-12.5,1.2-12.5s1.8-27-1.5-33.2s1.8-42.6,1.8-42.6s2.1-34.1,7.3-46.3c1-2.2,1.6-7,1.9-13.2
	c2.9-1.4,4.7-2.5,4.7-2.5s6-80.9,2.4-90.9c-2.2-6.4-3.2-13.1-3.1-19.9l6.9-24.5c0,0,4.5,12.1,7.3,13.6s6.5,7.5,6.5,7.5l30.5,24.3
	l23.6,17.2l20.9,17.3c0.5-4,1.7-7.9,3.8-11.4l0.7,0.3c3.9,1.4,8.8,3.1,7.6,2.4c-0.7-0.4-0.3-2.6,0.7-5.5l0.9,0.9
	c4.4,4,9,7.8,13.7,11.4c22.1,16.9,33.7-2,33.7-2s11.1,9.6,16.6,11.8S422.1,368.8,422.1,368.8z"/>
<path class="st9" d="M184.9,670.2c0,0,2.1,3,11.6,6.6c9.4,3.6,7.3,9.9,8.7,13.8c1.4,4,11,7.5,29.9,6.6s6.9-15.1,6.9-15.1
	s-9.9-14.5-13.2-16.5c-1.2-0.7-2.4-2.9-3.5-5.6c-1.5-3.8-2.8-7.7-3.8-11.6c0,0-31.1,4.2-33.4,7.3c-0.9,1.6-1.6,3.5-1.9,5.3
	C185.5,664.2,185.1,667.2,184.9,670.2z"/>
<path class="st9" d="M101.1,695c0,0,0.3,11.7,20.6,14.1s19.4-12.4,17.7-18c-1-3.4-0.3-14.1,0.5-21.9c0.5-5,0.9-8.8,0.9-8.8
	s-34.1,0.7-33.8,2.5c0,2.2-0.3,4.3-0.9,6.4c-1,3.9-2.2,7.8-3.7,11.5C99,689.1,101.1,695,101.1,695z"/>
<path class="st10" d="M341.6,346.4c0.6,1.2,2,3.2,5.5,6.6c4.2,4,8.5,7.8,13,11.3c21,16.8,32-2,32-2s10.6,9.6,15.8,11.7s5-4.6,5-4.6
	s-28.3-29.7-37.2-30.1c-5.1-0.2-11-2.9-15.1-5.1c-3-1.6-5.1-3-5.1-3l-7.6,7.4l-6.6,6.4C341.3,344.9,341,345.2,341.6,346.4z"/>
<path class="st11" d="M188,655.9c-0.9,1.6-1.6,3.5-1.9,5.3c5.2,7.6,36.4-0.4,39-1c-1.5-3.8-2.8-7.7-3.8-11.6
	C221.3,648.6,190.2,652.8,188,655.9z"/>
<path class="st11" d="M106,669.3c0.2,0.2,0.4,0.3,0.6,0.4c5.1,2.3,31-0.1,31-0.1c0.8,0.1,1.6,0,2.2-0.5c0.5-5,0.9-8.8,0.9-8.8
	s-34.1,0.7-33.8,2.5C107,665.1,106.7,667.3,106,669.3z"/>
<path class="st12" d="M96.7,446.1c1.4,7.1,1.7,14.5,0.7,21.7c-1.7,11,0.1,47.3,0.1,47.3l-0.1,63.7c0,0,2.3,40.8,4.2,49.6
	s-4.2,12.4-4.2,12.4s4.2,25.1,9.3,27.4s31-0.1,31-0.1s3.1,1.1,7-7s0-27.9-2.8-34.4s-0.3-13.5-0.3-13.5s-3.1-36.3,0-39.4
	s2.5-16.9,2.5-16.9l5.1-28.5l6-12.1l1.7-26.5l4.8-23.4c0,0,2-2,3.7-20.6s3.9-12.7,3.9-12.7c-0.8,12.4,5.6,18.6,5.6,18.6l1.8,32.4
	c0,0,2.2,24.2,5.8,30.1c3.6,5.9,0,13.2,0,13.2s1.2,23.1,0.1,29.9c-1.1,6.8,4.1,22.3,4.1,22.3l1.4,27.9c0,0-8.4,25.1-4.5,33.2
	c4,8.2,2,17.7,2,17.7c3.1,9.9,39.8,0,39.8,0s5-41.7,1.4-45.6s1.2-31,1.2-31s2.5-9,1.3-11.5s1.1-12.4,1.1-12.4s1.7-26.8-1.4-33
	s1.7-42.2,1.7-42.2s2-33.8,7-45.9c0.9-2.2,1.5-6.9,1.8-13.1c1.5-27.6-1.8-84.9-1.8-84.9l-13.8-18.9l-14.4-0.8l-13.9-0.8l-26.1-1.4
	l-25.7-1.4l-31.4-1.7c0,0-6.5,58-15.6,83.1c-1.3,3.5-2.2,7.1-2.9,10.8C91.6,420.6,92.6,433.8,96.7,446.1z"/>
<path class="st10" d="M173.3,125.2l11.2,27.5l24.3,4c0,0,12.9,4.4,12.3-6.6c-0.3-5.8,1.5-12,3.2-16.5c0.9-2.3,1.9-4.5,3.1-6.7
	c0,0-49.9-28.1-47.1-18.6c0.6,2.1,0.6,4.3,0.1,6.4C178.9,121,173.3,125.2,173.3,125.2z"/>
<polygon class="st9" points="202.5,325.2 147.8,325.2 150.6,344.4 203.6,344.4 "/>
<polygon class="st11" points="202.5,325.2 147.8,325.2 150.6,344.4 203.6,344.4 "/>
<path class="st11" d="M341.6,346.4c0.6,1.2,2,3.2,5.5,6.6c1.9-5.4,6-13.3,10.2-16c1.3-0.7,2.4-1.7,3.3-2.8c-3-1.6-5.1-3-5.1-3
	l-7.6,7.4L341.6,346.4z"/>
<path class="st13" d="M334.3,353.7c0,0,1.9,0.7,4.1,1.5c3.7,1.4,8.3,3.1,7.2,2.4c-1.8-1.1,4.5-17.3,10.9-21.4c4.7-3,3.9-4.4,3.1-5
	c-0.2-0.1-0.3-0.2-0.5-0.3l-5.1-1.8L334.3,353.7z"/>
<path class="st11" d="M180.3,108.4c0.6,2.1,0.6,4.3,0.1,6.4c8.4,15.8,26.6,23.7,43.9,18.9c0.9-2.3,1.9-4.5,3.1-6.7
	C227.4,126.9,177.6,98.8,180.3,108.4z"/>
<path class="st10" d="M176,95.2c0,21,17,38.1,38.1,38.1s38.1-17,38.1-38.1s-17-38.1-38.1-38.1c0,0,0,0,0,0
	c-20.9-0.1-38,16.7-38.1,37.6C176,94.9,176,95.1,176,95.2z"/>
<path class="st13" d="M142.5,325.3l24.3,1.1l28,1.3l13.7,0.6l1-9.1l10.8-94.6l3.6-71.6h-9.7l-26.8-4.4l-9.5-3.6l0,0l-12.4-4.7
	l-10.1,20.7l-3.4,94.8l-8,59.8L142.5,325.3z"/>
<path class="st11" d="M175.6,220.3c0,0,9.7-42.5,16.5-50.7c0,0-2.5-14.6-8.1-16.5s8.6-4.6,8.6-4.6l8.7,3l8.7,3.5
	c0,0-7.6,6.8-6.3,15.6c-0.7,4-0.3,8.1,1,11.8c2.3,5.9,2.7,53.9,0,60.2s-2.3,20.3-2.3,20.3l-5.7,27.2l-1.9,32.7l-20.5,15.3l-14.4-18
	L175.6,220.3z"/>
<path class="st9" d="M174.8,219.5c0,0,9.7-42.5,16.5-50.7c0,0-2.5-14.6-8.1-16.5c-5.6-1.9,8.6-4.6,8.6-4.6l8.7,3l8.7,3.5
	c0,0-7.6,6.8-6.3,15.6c-0.7,4-0.4,8,1,11.8c2.3,5.9,2.8,53.9,0,60.2s-2.3,20.3-2.3,20.3l-5.7,27.3l-1.9,32.7l-20.5,15.2l-14.4-18
	L174.8,219.5z"/>
<path class="st11" d="M221.5,144.5l-21.1,7c0,0,10.6,5.4,10.6,21.5C210.9,173,221.6,159.9,221.5,144.5z"/>
<path class="st13" d="M221.5,143.6l-21.1,7c0,0,10.6,5.4,10.6,21.5C210.9,172.1,221.6,159.1,221.5,143.6z"/>
<path class="st11" d="M175.6,123.9c0,0,10.4,17.9,24.7,27.6c0,0-8.7-3.2-24.7,9C175.6,160.5,165.7,124.8,175.6,123.9z"/>
<path class="st13" d="M175.6,123.1c0,0,10.4,17.9,24.7,27.6c0,0-8.7-3.2-24.7,9C175.6,159.7,165.7,123.9,175.6,123.1z"/>
<path class="st11" d="M334.3,353.7c0,0,1.9,0.7,4.1,1.5c6.3-12.1,19-22.3,21.1-24c-0.2-0.1-0.3-0.2-0.5-0.3l-5.1-1.8L334.3,353.7z"
	/>
<path class="st11" d="M191.7,383.8c0.6,14.1,8.4,40.4,8.4,40.4c9.8,13.6,31.6,3.6,39.3-0.5c1.5-27.6-1.8-84.9-1.8-84.9l-13.8-18.9
	l-14.4-0.8l10.8-94.6l3.6-71.6h-5.4c-1.7,7.3-4.5,19.6-4,22.6c0.7,4.4-6.6,47.9-6.6,47.9l-9.1,55.4l-2.5,15.1
	c0.8,2.5,0.2,13.3-0.7,24.4c-0.3,3.1-0.5,6.3-0.8,9.3c-1,10.3-2,18.9-2,18.9C191.5,356.2,191.7,383.8,191.7,383.8z"/>
<path class="st14" d="M193.4,383c0.6,14.2,8.4,40.4,8.4,40.4c12,16.7,42-2.1,42-2.1s5.7-80.3,2.3-90.2c-2.1-6.3-3.1-13-3-19.6
	l6.5-24.3c0,0,4.2,12,7,13.5s6.1,7.4,6.1,7.4l28.9,24.1l22.4,17.1l19.9,17.1C335.5,348.5,359,331,359,331l-67.6-55.8
	c0.6-1.1-3-12.9-3-12.9l-3.6-12.3l-7.6-10.3c0,0,2.1-7.2,0-10.8s-1.7-12-3.2-32.5s-9.5-21.8-9.5-21.8s-31-21.6-34.6-20.9
	c-3.4,0.6-7.8-6.2-8.4-7.1l-0.1-0.1c0,0-6,23.7-5.3,28.1s-6.6,47.9-6.6,47.9l-9.1,55.4l-2.5,15.1c1.8,5.7-3.5,52.5-3.5,52.5
	C193.2,355.4,193.4,383,193.4,383z"/>
<path class="st11" d="M93.8,407.8c12.1,6.2,23.3,12.2,23.3,12.2s18.7,6.2,26.3-29l21.8-59.9c0,0,0.6-1.8,1.5-4.8
	c0.7-2.4,1.7-5.7,2.7-9.4c4.3-15.3,10-38.5,7.9-47.7v-0.7l-0.4-81.8c0,0,2.3-38.5,0.9-41.6c0-0.1-0.1-0.2-0.1-0.2l0,0l-12.4-4.7
	l-10.1,20.7l-3.4,94.8l-8,59.8l-31.4-1.7c0,0-6.5,58-15.6,83.1C95.4,400.5,94.4,404.2,93.8,407.8z"/>
<path class="st14" d="M65,393.7c10.6,4.4,50.4,25.5,50.4,25.5s18.7,6.2,26.3-29l21.8-59.9c0,0,15.4-47.8,12.1-61.8v-0.7l-0.4-81.8
	c0,0,2.3-38.4,0.9-41.6c-1.4-3-3-11.9-2.3-19.5c0-0.4,0.1-0.8,0.1-1.2l-0.5,0.3l-15.4,8.1h-1.7c-5-0.1-19.3-0.2-21.5,0.7
	c-2.7,1.1-28.6,3.3-28.6,3.3s-13.8,0.8-13.1,21.9c0,0-5.2,17.8-6.8,20.7s-10.7,31.8-10.7,31.8L65,265.7l-1.3,61.1
	c0,0-0.1,39-2.3,42.3l7.6,3C69.1,372.1,54.4,389.3,65,393.7z"/>
<path class="st10" d="M102.5,359l4.8,6.3c0,0,29.3,53.1-3.4,45.4S76,376.2,76,376.2l2-18.6L102.5,359z"/>
<path class="st11" d="M143.7,645.6c-0.7-0.1-12.1-4.9-20-4.9s-18.4-0.8-17.2,1.3s16.5,2.4,20.8,4.5c4.4,2.1,13.7,7.9,14.5,8.2
	C142.8,654.9,143.7,645.6,143.7,645.6z"/>
<path class="st11" d="M222.3,621.7c-0.1,0.8-16.9,19.7-26.2,18.8S222.3,621.7,222.3,621.7z"/>
<path class="st11" d="M217.4,576.8c0,0-18,45.8-23.8,48.2c-5.8,2.4-6.6-5.6-3.5-7.9C193.2,614.8,202.8,600,217.4,576.8z"/>
<path class="st11" d="M124.7,561.7c0,0-3,16.9,4.5,27.9C136.7,600.6,124.7,561.7,124.7,561.7z"/>
<path class="st11" d="M172,408.5c0.3-0.3-26.9-1.4-26.9-1.4S157.4,420.4,172,408.5z"/>
<path class="st11" d="M168.7,420.2l-16.5,1.5C152.2,421.7,158,428.7,168.7,420.2z"/>
<path class="st11" d="M266.1,244.5c0,0,14.8,2,16.2,6.3S266.1,244.5,266.1,244.5z"/>
<path class="st11" d="M292.3,280.7c-1.1-0.4-10.3-3.1-16.8-1.4s-15.6-3.1-15.6-3.1s-9.3-0.3-7.5,1s7.3,0.7,10.4,2.5
	s11.3,3.4,13.3,2.5S292.3,280.7,292.3,280.7z"/>
<path class="st14" d="M200.4,278l0.3,7.6c0,0,25.9-63.7,32.4-77.3S236,165,236,165l-3.7-0.9l-10.7-17.4l-0.1-0.1
	c0,0-6,23.7-5.3,28.1s-6.6,47.9-6.6,47.9L200.4,278z"/>
<path class="st14" d="M148.6,144.7c0,0,10.6,109.5,27.1,123.1l-0.4-81.8c0,0,2.3-38.4,0.9-41.6c-1.4-3-3-11.9-2.3-19.5l-0.3-0.9
	l-15.4,8.1h-1.7l-1,14.6L148.6,144.7z"/>
<path class="st11" d="M200.4,278l0.3,7.6c0,0,25.9-63.7,32.4-77.3S236,165,236,165l-3.7-0.9l-10.7-17.4l-0.1-0.1
	c0,0-6,23.7-5.3,28.1s-6.6,47.9-6.6,47.9L200.4,278z"/>
<path class="st11" d="M148.6,144.7c0,0,10.6,109.5,27.1,123.1l-0.4-81.8c0,0,2.3-38.4,0.9-41.6c-1.4-3-3-11.9-2.3-19.5l-0.3-0.9
	l-15.4,8.1h-1.7l-1,14.6L148.6,144.7z"/>
<circle class="st12" cx="203.6" cy="296.1" r="3.1"/>
<circle class="st12" cx="200.4" cy="342.7" r="3.1"/>
<path class="st11" d="M176,95.2c0,5.5,1.2,10.9,3.5,15.9l0.5-0.6c6.1-7.7,7.5-18.4,13-26.6c2-2.9,4.6-5.6,7.9-6.6s7.3-0.3,9.4,2.6
	c1.3,1.8,1.7,4.2,3,6c2.6,3.4,7.5,3.3,11.7,2.7s8.9-1.3,12.1,1.4s3.4,7.5,6,10.7c2,2.4,4.9,3.6,8,4.1c5.2-20.4-7.1-41.1-27.5-46.3
	c-20.4-5.2-41.1,7.1-46.3,27.5C176.4,89.1,176,92.2,176,95.2L176,95.2z"/>
<path class="st15" d="M197.4,46.4c-7.9,3.3-15.6,7.5-21.6,13.8s-10,14.9-9.6,23.6c0.1,2.8,0.8,5.5,2.2,7.9c1.3,2.1,3.2,3.8,3.8,6.1
	c0.8,2.7-0.3,5.6-0.3,8.4s2.1,6.2,4.7,5.4c1-0.4,1.8-1,2.4-1.9c6.1-7.7,7.5-18.4,12.9-26.5c2-2.9,4.6-5.6,7.9-6.6s7.3-0.3,9.4,2.6
	c1.3,1.8,1.6,4.2,3,6c2.6,3.4,7.5,3.3,11.7,2.7s8.9-1.3,12.1,1.4s3.4,7.5,6,10.7c3.1,3.9,8.7,4.4,13.6,4.6c-2-4.5-1.3-9.8,0.4-14.4
	s4.4-8.8,6.3-13.4c1.4-3.1,2.1-6.4,2-9.8c-0.3-3.3-2-6.7-4.9-8.2c-1.7-0.9-3.7-1.1-5.3-2.2c-4.7-3.2-4.4-8.5-10.7-10.2
	c-5-1.4-10.3-1.3-15.4-2.8C217.2,40.6,208,42.5,197.4,46.4z"/>
<path class="st11" d="M86.3,363.5c0,0-8.6,8.5-9.7,8.3s-2.8-7.6-2.8-7.6L86.3,363.5z"/>
<path class="st13" d="M85.4,362.7c0,0-8.6,8.5-9.7,8.3s-2.8-7.6-2.8-7.6L85.4,362.7z"/>
<path class="st11" d="M62.3,369.9c0,0,36.6-8.5,45.8-4.5c0,0-3.4-20.7-2.8-24.5s-0.1-17-0.1-17s-2.1-24.6,0.7-31.5
	s1.3-25.2,1.3-25.2l-41.7,19.9C65.4,286.9,64.9,364.4,62.3,369.9z"/>
<path class="st14" d="M61.5,369c0,0,36.6-8.5,45.8-4.5c0,0-3.4-20.7-2.8-24.5s-0.1-17-0.1-17s-2.1-24.6,0.7-31.5s1.3-25.2,1.3-25.2
	l-41.7,19.8C64.6,286.1,64,363.5,61.5,369z"/>
<g class="st16">
	<path d="M254.9,100.6c-1.7-4.4-1-9.4,0.7-13.8c1.7-4.6,4.4-8.8,6.3-13.4c1.4-3.1,2.1-6.4,2-9.8c0-0.1,0-0.1,0-0.2
		c0.5,1.1,0.8,2.3,0.9,3.5c0.1,3.4-0.6,6.7-2,9.8c-1.9,4.5-4.6,8.7-6.3,13.4C255.1,93.4,254.6,97,254.9,100.6z"/>
	<path d="M176.1,108.2c1-0.4,1.9-1,2.5-1.9c6.1-7.7,7.4-18.4,12.9-26.5c2-2.9,4.6-5.6,7.9-6.6c3.3-1.1,7.3-0.3,9.4,2.6
		c1.3,1.8,1.6,4.2,3,6c2.6,3.4,7.5,3.3,11.7,2.7s8.9-1.3,12.1,1.4s3.4,7.5,6,10.7c3.1,3.9,8.6,4.4,13.5,4.6c0.2,1.2,0.5,2.3,1,3.4
		c-4.9-0.2-10.5-0.7-13.6-4.6c-2.6-3.2-2.9-8.1-6-10.7s-7.9-2.1-12.1-1.4s-9.1,0.7-11.7-2.7c-1.3-1.8-1.7-4.1-3-6
		c-2-2.9-6.1-3.7-9.4-2.6c-3.3,1.1-5.9,3.7-7.9,6.6c-5.5,8.2-6.8,18.9-12.9,26.5c-0.6,0.9-1.4,1.6-2.4,1.9c-2.6,0.7-4.7-2.6-4.7-5.4
		v-0.1C173.1,107.6,174.5,108.7,176.1,108.2z"/>
	<path d="M167.9,88.3c1.3,2.1,3.2,3.8,3.8,6.1c0.2,0.7,0.3,1.3,0.3,2c-0.9-1.7-2.3-3.1-3.3-4.7c-1-1.8-1.7-3.7-2-5.8
		C167,86.8,167.4,87.6,167.9,88.3z"/>
</g>
<ellipse class="st0" cx="808.6" cy="660.8" rx="79.8" ry="12.2"/>
<ellipse class="st0" cx="389.4" cy="784.4" rx="39.5" ry="6.1"/>
<ellipse class="st0" cx="641.1" cy="753.1" rx="39.5" ry="6.1"/>
<ellipse class="st0" cx="459.3" cy="709.4" rx="39.5" ry="6.1"/>
<ellipse class="st0" cx="577.5" cy="673.1" rx="39.5" ry="6.1"/>
<path class="st1" d="M1012.1,620.2c0,0,6.6,8.7-3.1,21.8s-17.7,24.2-14.4,32.3c0,0,14.6-24.3,26.6-24.7
	C1033.1,649.3,1025.2,634.8,1012.1,620.2z"/>
<path class="st11" d="M1012.1,620.2c0.6,0.8,1,1.8,1.4,2.7c11.6,13.7,17.8,26.4,6.6,26.7c-10.4,0.3-22.9,18.9-25.9,23.6
	c0.1,0.4,0.2,0.7,0.4,1.1c0,0,14.6-24.3,26.6-24.7C1033,649.4,1025.2,634.8,1012.1,620.2z"/>
<path class="st17" d="M1024.4,631.2c0,3.1-0.3,5.5-0.8,5.5c-0.4,0-0.8-2.5-0.8-5.5s0.4-1.6,0.9-1.6
	C1024.2,629.6,1024.4,628.2,1024.4,631.2z"/>
<path class="st17" d="M1028.6,634.9c-2.7,1.5-5,2.3-5.2,2s1.8-1.9,4.5-3.3s1.6-0.4,1.8,0S1031.3,633.5,1028.6,634.9z"/>
<path class="st1" d="M977,620.2c0,0-6.6,8.7,3.1,21.8s17.7,24.2,14.5,32.3c0,0-14.7-24.3-26.6-24.7S963.9,634.8,977,620.2z"/>
<path class="st11" d="M977,620.2c-0.6,0.8-1,1.8-1.3,2.7c-11.6,13.7-17.8,26.4-6.7,26.7c10.4,0.3,22.9,18.9,25.9,23.6
	c-0.1,0.4-0.2,0.7-0.3,1.1c0,0-14.7-24.3-26.6-24.7S963.9,634.8,977,620.2z"/>
<path class="st17" d="M964.6,631.2c0,3.1,0.3,5.5,0.8,5.5s0.8-2.5,0.8-5.5s-0.4-1.6-0.8-1.6S964.6,628.2,964.6,631.2z"/>
<path class="st17" d="M960.4,634.9c2.7,1.5,5,2.3,5.2,2s-1.8-1.9-4.5-3.3s-1.6-0.4-1.8,0S957.7,633.5,960.4,634.9z"/>
<ellipse class="st0" cx="994.5" cy="730.2" rx="69.4" ry="10.7"/>
<path class="st18" d="M1030.3,662.7l-0.3,2.7l-0.5,3.8l-0.2,1.6l-0.5,3.8l-0.2,1.6l-0.5,3.8l-5.3,43.6c-0.5,3.9-6.8,6.9-14.5,6.9
	h-27.6c-7.7,0-14-3-14.5-6.9l-5.3-43.6l-0.5-3.8l-0.2-1.6l-0.5-3.8l-0.2-1.6l-0.5-3.8l-0.3-2.7c-0.3-2.2,3.2-4.1,7.5-4.1h56.5
	C1027.1,658.6,1030.6,660.5,1030.3,662.7z"/>
<polygon class="st19" points="1029.9,665.4 1029.5,669.2 959.6,669.2 959.1,665.4 "/>
<polygon class="st19" points="1029.3,670.8 1028.8,674.6 960.3,674.6 959.8,670.8 "/>
<polygon class="st19" points="1028.6,676.2 1028.2,680 960.9,680 960.5,676.2 "/>
</svg>
